{"title":"Seryozha.A.Summer.To.Remember.URSS.1960.DVDRip.XviD","uid":8075502,"size":1468250995,"categoryP":"video","categoryS":"movies","magnet":"?xt=urn:btih:251e2832c3f2b611382403b00421dafd9ff1b620&amp;dn=Seryozha.A.Summer.To.Remember.URSS.1960.DVDRip.XviD&amp;tr=udp%3A%2F%2Ftracker.openbittorrent.com%3A80&amp;tr=udp%3A%2F%2Fopen.demonii.com%3A1337&amp;tr=udp%3A%2F%2Ftracker.coppersurfer.tk%3A6969&amp;tr=udp%3A%2F%2Fexodus.desync.com%3A6969","seeders":0,"leechers":2,"uploader":"pamis2046","files":3,"time":1359378625,"description":"Seryozha\n(A Summer to Remember) - 1960\n\nDirectors: Georgi Daneliya, Igor Talankin\n\nFile size : 1.37 GiB \nDuration : 1h 15mn \nOverall bit rate : 2 589 Kbps \nWriting application : VirtualDubModRus 1.5.10.2 (build 2542/release) \nWriting library : VirtualDubMod build 2542/release \n\nVideo \nID : 0 \nFormat : MPEG-4 Visual \nFormat profile : Advanced Simple@L5 \nFormat settings, BVOP : 2 \nFormat settings, QPel : No \nFormat settings, GMC : No warppoints \nFormat settings, Matrix : Default (MPEG) \nMuxing mode : Packed bitstream \nCodec ID : XVID \nCodec ID/Hint : XviD \nDuration : 1h 15mn \nBit rate : 2 387 Kbps \nWidth : 704 pixels \nHeight : 528 pixels \nDisplay aspect ratio : 4:3 \nFrame rate : 25.000 fps \nColor space : YUV \nChroma subsampling : 4:2:0 \nBit depth : 8 bits \nScan type : Progressive \nCompression mode : Lossy \nBits/(Pixel*Frame) : 0.257 \nStream size : 1.26 GiB (92%) \nWriting library : XviD 1.2.1 (UTC 2008-12-04) \n\nAudio \nID : 1 \nFormat : AC-3 \nFormat/Info : Audio Coding 3 \nMode extension : CM (complete main) \nFormat settings, Endianness : Big \nCodec ID : 2000 \nDuration : 1h 15mn \nBit rate mode : Constant \nBit rate : 192 Kbps \nChannel(s) : 2 channels \nChannel positions : Front: L R \nSampling rate : 48.0 KHz \nBit depth : 16 bits \nCompression mode : Lossy \nStream size : 104 MiB (7%) \nAlignment : Aligned on interleaves \nInterleave, duration : 40 ms (1.00 video frame) \nInterleave, preload duration : 512 ms ","torrent":{"xt":"urn:btih:251e2832c3f2b611382403b00421dafd9ff1b620","amp;dn":"Seryozha.A.Summer.To.Remember.URSS.1960.DVDRip.XviD","amp;tr":["udp%3A%2F%2Ftracker.openbittorrent.com%3A80","udp%3A%2F%2Fopen.demonii.com%3A1337","udp%3A%2F%2Ftracker.coppersurfer.tk%3A6969","udp%3A%2F%2Fexodus.desync.com%3A6969"],"infoHash":"251e2832c3f2b611382403b00421dafd9ff1b620","infoHashBuffer":{"type":"Buffer","data":[37,30,40,50,195,242,182,17,56,36,3,176,4,33,218,253,159,241,182,32]},"announce":[],"urlList":[]}}